PathFileType	4	(X/Y/Z)	G:\マイドライブ\biomec\experimentalData\240725\CJ3.trc
DataRate	CameraRate	NumFrames	NumMarkers	Units	OrigDataRate	OrigDataStartFrame	OrigNumFrames
200.00	200.00	      6	52	mm	200.00	834	      1667
Frame#	Time	handR			wrRI			wrRO			elbRI			elbRO			shRF			shRU			shRB			handL			wrLI			wrLO			elbLI			elbLO			shLF			shLU			shLB			toeR			baRI			baRO			heelR			anRI			anRO			knRI			knRO			troR			toeL			baLI			baLO			heelL			anLI			anLO			knLI			knLO			troL			head			earR			earL			clav			c7			ribR			ribL			xiph			ASISR			ASISL			PSISR			PSISL			t8			t11			L1			L3			LS			COX			
		X1	Y1	Z1	X2	Y2	Z2	X3	Y3	Z3	X4	Y4	Z4	X5	Y5	Z5	X6	Y6	Z6	X7	Y7	Z7	X8	Y8	Z8	X9	Y9	Z9	X10	Y10	Z10	X11	Y11	Z11	X12	Y12	Z12	X13	Y13	Z13	X14	Y14	Z14	X15	Y15	Z15	X16	Y16	Z16	X17	Y17	Z17	X18	Y18	Z18	X19	Y19	Z19	X20	Y20	Z20	X21	Y21	Z21	X22	Y22	Z22	X23	Y23	Z23	X24	Y24	Z24	X25	Y25	Z25	X26	Y26	Z26	X27	Y27	Z27	X28	Y28	Z28	X29	Y29	Z29	X30	Y30	Z30	X31	Y31	Z31	X32	Y32	Z32	X33	Y33	Z33	X34	Y34	Z34	X35	Y35	Z35	X36	Y36	Z36	X37	Y37	Z37	X38	Y38	Z38	X39	Y39	Z39	X40	Y40	Z40	X41	Y41	Z41	X42	Y42	Z42	X43	Y43	Z43	X44	Y44	Z44	X45	Y45	Z45	X46	Y46	Z46	X47	Y47	Z47	X48	Y48	Z48	X49	Y49	Z49	X50	Y50	Z50	X51	Y51	Z51	X52	Y52	Z52	

834	4.165	515.32849	749.18713	635.39392	470.47626	682.74036	653.76520	475.09979	730.52869	708.67145	496.23746	606.10846	888.50305	530.80615	542.65472	852.04590	799.77625	715.84125	812.35065	786.58484	690.72131	874.46216	730.27734	698.80493	902.08368	536.38000	1039.48669	644.71375	511.99664	1112.97729	651.84753	546.46790	1060.98193	698.95813	549.42920	1195.90869	876.70013	588.11157	1256.29065	831.37897	819.98309	1028.10925	798.75092	810.05731	1062.54944	854.60046	738.88477	1051.19580	886.60004	697.77948	718.44666	43.69910	622.78748	778.26239	34.74473	580.79755	658.37531	40.70693	417.85513	779.33990	43.39481	524.20740	802.44000	112.04079	486.87079	712.31952	104.42946	711.65704	739.90436	398.50980	703.95471	624.99664	394.58386	401.57086	719.09991	582.02063	715.65009	1049.17847	46.25055	643.90216	1001.60480	50.40934	618.97498	1114.19604	44.66239	430.02530	1045.78735	40.97850	538.41180	1000.02118	126.26683	510.53265	1090.04382	104.95336	738.58075	994.36346	394.95905	739.47546	1117.77808	404.74387	437.38605	1074.63281	575.47815	775.26062	879.06293	1085.62341	891.19775	800.77484	959.17468	885.32684	958.79327	956.97614	833.45667	875.21948	784.66602	775.72906	884.23212	916.98114	554.64124	780.06842	632.28864	574.07751	1001.86060	627.42480	726.95172	876.75555	647.32404	472.23929	786.73566	563.37781	495.70529	1010.39935	566.51556	344.36194	851.38507	676.34680	361.74188	969.13818	677.52899	593.69421	895.29877	845.25330	492.86221	903.95331	772.76691	445.54129	909.80035	735.52002	396.98117	909.12122	704.04816	338.76376	913.12451	675.45770	259.85342	919.13568	573.67126	
835	4.170	515.67413	749.29535	630.09491	470.86911	682.95789	647.88269	475.15503	730.85010	702.83502	495.79575	607.03632	883.47272	530.48907	543.24219	847.14099	799.48309	716.26837	806.62775	786.43085	691.26727	868.86365	730.12463	699.33484	896.52045	536.59888	1039.25269	639.05042	510.56061	1113.40698	645.94586	546.55518	1061.14941	693.05396	549.18475	1195.37170	871.37054	587.61011	1255.85242	826.08997	818.52710	1027.67773	792.24353	809.93488	1062.60608	848.75916	738.66449	1051.32043	880.86456	697.76813	718.44434	43.69191	622.76764	778.33069	34.64650	580.80841	658.35443	40.68721	417.77921	779.31213	43.26162	524.35077	802.61713	111.79259	486.89151	712.41412	104.37433	713.20032	740.56226	397.09177	705.83557	625.61914	393.20282	402.38165	719.25116	577.53210	715.65631	1049.22827	46.31103	643.91974	1001.64465	50.40413	618.96478	1114.22119	44.48979	430.03198	1045.84534	40.84050	538.54517	999.90558	126.00151	510.58084	1090.02344	104.87513	739.52063	993.63416	392.70477	740.84796	1116.81262	403.65375	437.77051	1074.64978	571.29590	774.65527	879.35248	1079.34985	891.01038	800.77026	953.56415	885.10455	958.98633	951.12714	833.68481	875.36353	778.79236	775.77808	884.38348	911.27191	554.74292	780.16718	626.65692	574.24945	1001.94513	621.66980	727.12018	876.83203	641.39789	472.85150	787.06049	558.37250	496.44540	1010.63507	561.17529	344.62662	851.38129	670.79974	361.73193	969.04614	671.82220	593.77924	895.52563	839.61188	492.84805	904.16437	767.14258	445.48239	910.02802	730.01758	397.08585	909.11432	698.44830	338.82083	913.04370	669.87488	260.04245	919.05438	567.88947	
836	4.175	516.18518	749.20428	624.64618	471.52621	682.87463	642.65015	475.36490	731.01495	697.56604	495.33954	608.20374	878.61768	529.95239	544.05035	842.49670	799.37836	716.52533	801.43890	786.09412	691.77332	863.58746	729.70801	699.94916	891.36591	536.85858	1039.01367	633.61133	511.66016	1113.01062	640.67084	546.59247	1061.20801	687.62354	549.08295	1194.80383	865.74414	587.04315	1255.61462	821.32831	817.26837	1026.98645	786.31909	809.95410	1062.62598	843.35272	738.41199	1051.66577	875.51813	697.79340	718.46509	43.63297	622.79852	778.36993	34.51015	580.80896	658.36688	40.70270	417.74713	779.32642	43.05396	524.46515	802.91223	111.56581	486.96573	712.57660	104.36172	714.73682	741.43756	395.99500	707.69366	626.45624	392.23575	403.25095	719.44147	573.32446	715.62024	1049.25366	46.30410	643.92188	1001.61682	50.38184	618.98962	1114.12817	44.36932	430.03583	1045.87329	40.75466	538.69849	999.72656	125.75924	510.72516	1089.89697	104.86456	740.75751	991.85571	391.56860	742.93756	1115.80493	403.31876	438.21744	1074.14038	566.66711	773.87714	879.50934	1073.53259	890.73767	801.14789	948.06073	885.18677	959.12634	945.86963	833.39587	875.77301	773.26868	775.70221	884.62250	905.62170	554.64624	780.14746	621.27802	574.28271	1001.89825	616.17773	727.09485	876.74512	635.96326	473.37936	787.35858	553.62469	496.77271	1010.69189	556.10437	344.70959	851.26721	665.42853	361.85211	969.03534	666.81567	593.93634	895.78503	834.16772	493.46411	904.15344	761.15918	445.78967	910.30353	724.23999	397.18759	909.14301	693.20673	338.78110	913.18726	664.49457	260.11157	918.96368	562.45923	
837	4.180	516.76587	749.70465	619.63055	472.25085	683.10144	637.52795	475.31146	731.17261	692.37976	494.74094	609.09161	873.95502	529.49103	544.75208	838.35602	799.17511	716.96503	796.44281	785.87280	692.13672	858.67261	729.59015	700.45593	886.45844	537.15869	1038.76990	628.40704	511.69577	1113.17798	635.67157	546.64581	1061.28760	682.36761	548.68286	1194.27319	861.14642	586.52802	1255.23547	816.93286	815.85974	1026.77393	780.66284	809.77783	1062.81055	838.40558	738.32568	1051.73181	870.51855	697.81720	718.49530	43.56432	623.69464	779.07123	34.17464	580.80652	658.41675	40.73785	417.75406	779.32928	42.96498	524.57495	803.25757	111.25030	487.11047	712.76782	104.36137	716.32703	742.73834	394.79425	709.62286	627.71381	391.27097	403.92529	719.70966	569.33795	715.65088	1049.25317	46.29353	643.92548	1001.58069	50.34401	619.04523	1114.03284	44.26262	430.02115	1045.84009	40.71349	538.83221	999.44293	125.44323	510.93912	1089.69690	104.87177	741.67139	990.65979	389.62741	743.75037	1114.67603	401.96295	438.81454	1073.70044	562.64124	773.14008	879.68921	1067.95129	890.51233	801.22937	943.15863	885.14050	959.31396	941.15973	833.33673	875.86536	768.08447	775.69189	884.93823	900.76270	555.10986	779.50616	617.13367	574.24011	1002.15833	611.02789	727.11804	877.09473	630.73334	474.34335	786.51697	550.91022	497.54535	1010.87457	551.44037	344.66260	851.27869	660.68860	361.82434	968.94330	661.72668	593.80725	895.99689	829.30237	493.39316	904.22211	756.15686	445.54242	910.08624	719.62958	397.07208	909.15637	688.22174	338.81326	913.11475	659.32501	260.24167	918.75018	557.32715	
838	4.185	517.15454	750.16309	614.85229	472.93436	682.90869	632.58099	475.62805	731.49756	687.33173	494.00461	609.95544	869.26721	529.09277	545.65436	834.49426	798.86823	717.13312	792.01575	785.55096	692.73767	854.13043	729.27142	701.03021	881.95294	537.49951	1038.52222	623.44800	511.78006	1113.14648	630.80066	546.50690	1061.16968	677.65369	548.06378	1193.65283	856.74481	585.84259	1254.74463	812.75293	814.59149	1026.79016	775.32813	809.61615	1063.12036	833.83649	738.04120	1051.62878	865.92163	697.84674	718.52643	43.45171	623.70111	779.18927	34.04468	580.80060	658.47815	40.81137	417.74167	779.37170	42.86888	524.70477	803.60730	110.94460	487.28812	713.04651	104.42383	718.15588	744.22119	393.42239	711.77203	629.15228	390.20236	404.71075	719.71649	565.84546	715.67236	1049.28467	46.23614	643.98541	1001.48254	50.30231	619.07343	1113.94324	44.22285	430.03104	1045.79370	40.72202	539.03491	999.06512	124.99772	511.08636	1089.41077	104.92103	742.91022	988.98560	388.34552	744.94244	1113.02844	400.50717	439.42957	1073.15918	558.95410	772.34381	879.82538	1062.94141	890.18225	801.38947	938.81982	884.77277	959.57306	936.70697	833.29736	876.01398	763.39862	775.50708	885.18835	895.74237	555.24432	779.58728	612.56915	573.95868	1002.50122	606.28723	727.03271	877.66595	625.78400	475.28494	786.57275	546.92145	498.06793	1011.00977	547.29291	344.76974	851.27069	655.86871	361.90302	968.96545	656.94421	593.71875	896.21246	824.44672	493.24387	904.36554	751.33887	445.48969	910.32648	715.11896	397.00839	909.30414	683.57391	338.72977	913.10883	654.74146	260.43481	918.55078	552.37384	
839	4.190	517.79407	750.36261	610.48633	473.66223	683.00928	628.12701	476.01773	731.59009	682.81470	493.61771	610.94366	865.27362	528.61438	546.32257	830.94507	798.53326	717.49042	787.81561	785.31445	693.15942	849.98010	729.07721	701.42548	877.93365	537.88068	1038.27112	618.74438	511.72150	1113.27539	626.62274	546.67590	1061.16162	673.33374	547.31653	1192.98962	852.82288	584.93616	1254.32996	809.21637	813.50232	1026.95825	770.23639	809.48877	1063.24329	829.71594	737.60339	1051.74609	861.24261	697.93732	718.60815	43.31470	623.72614	779.35712	33.83509	580.83942	658.54504	40.85279	417.70755	779.42529	42.80683	524.81635	803.94824	110.65199	487.43112	713.33929	104.52978	719.77228	745.94220	392.09534	713.74139	630.82642	389.20932	405.76852	719.79919	562.21509	715.70215	1049.29749	46.18614	644.01874	1001.44165	50.17437	619.14374	1113.86389	44.23066	430.00238	1045.75244	40.70334	539.33765	998.66669	124.51234	511.29135	1089.13318	104.95767	743.83368	987.06274	386.80072	746.76440	1111.21521	399.86429	440.24759	1072.68823	555.50653	771.59418	879.84314	1058.43811	889.68805	801.62463	934.64404	884.65179	959.64716	932.67365	833.26935	876.34863	759.16229	775.34277	885.32947	891.48077	555.04718	780.34015	607.74457	573.94196	1002.57281	601.68256	727.11292	877.91718	621.43646	476.24280	787.71967	541.74207	498.90793	1010.83990	543.12506	344.99179	851.16370	651.38904	362.03104	968.67334	652.36426	593.75488	896.39954	820.21265	493.16983	904.55725	747.10181	445.41656	910.39252	710.72223	396.88840	909.38263	679.06525	338.97607	912.61816	650.06116	260.78366	918.35956	547.64471	
